<?xml version="1.0" standalone="no"?>
<!DOCTYPE svg PUBLIC "-//W3C//DTD SVG 20010904//EN"
 "http://www.w3.org/TR/2001/REC-SVG-20010904/DTD/svg10.dtd">
<svg version="1.0" xmlns="http://www.w3.org/2000/svg"
 width="2896.000000pt" height="912.000000pt" viewBox="0 0 2896.000000 912.000000"
 preserveAspectRatio="xMidYMid meet">

<g transform="translate(0.000000,912.000000) scale(0.100000,-0.100000)"
fill="#000000" stroke="none">
<path d="M7034 6979 c-8 -14 23 -70 74 -134 27 -33 95 -132 151 -220 56 -88
147 -225 202 -305 141 -204 310 -453 564 -830 121 -179 223 -329 227 -335 8
-9 68 -92 127 -174 13 -18 63 -92 111 -165 101 -150 156 -228 215 -306 121
-161 115 -97 115 -1095 0 -462 3 -856 6 -877 5 -25 13 -38 28 -43 11 -3 170
-9 351 -12 289 -5 332 -4 343 10 10 12 15 202 22 854 6 475 15 868 20 908 15
95 57 177 196 375 63 91 143 205 177 253 34 49 132 191 217 317 151 221 320
468 453 660 36 52 114 168 174 258 59 89 157 233 218 320 60 86 143 207 183
267 41 61 92 130 114 154 40 46 54 80 44 106 -5 13 -234 15 -1983 17 -1088 0
-2060 2 -2161 3 -100 1 -185 -2 -188 -6z m2481 -755 c237 -3 438 -10 448 -15
9 -5 17 -16 17 -25 0 -24 -36 -88 -100 -177 -33 -46 -81 -115 -107 -154 -229
-338 -378 -563 -427 -643 -66 -107 -102 -150 -127 -150 -37 0 -130 122 -289
377 -30 48 -90 140 -133 203 -182 269 -225 334 -277 417 -83 132 -91 150 -77
161 26 20 51 21 342 17 165 -3 494 -8 730 -11z"/>
<path d="M12506 6978 c-9 -5 -13 -65 -14 -245 0 -131 -4 -288 -8 -349 -6 -111
-6 -112 17 -120 13 -5 341 -9 729 -9 775 0 754 2 773 -60 5 -17 9 -676 10
-1520 1 -820 4 -1643 7 -1830 l5 -340 125 -13 c131 -14 523 -10 589 5 26 7 37
16 45 38 6 20 11 659 13 1845 5 2093 -10 1856 119 1871 43 5 370 8 725 8 376
-1 652 2 662 7 14 8 17 41 21 254 2 135 8 289 12 342 l7 97 -27 11 c-30 11
-3789 19 -3810 8z"/>
<path d="M26155 6981 c-65 -10 -113 -35 -148 -74 -89 -102 -251 -321 -403
-548 -95 -142 -187 -278 -204 -301 -28 -40 -148 -216 -336 -498 -42 -63 -86
-128 -98 -145 -11 -16 -49 -73 -84 -125 -79 -117 -125 -167 -177 -191 -36 -17
-69 -19 -333 -19 -331 0 -341 2 -363 67 -9 28 -12 137 -10 428 1 215 -1 610
-5 879 -7 468 -8 490 -27 509 -18 18 -31 19 -331 15 -190 -3 -321 -9 -337 -16
-18 -7 -28 -21 -33 -42 -3 -18 -6 -1020 -6 -2226 l0 -2194 23 -5 c12 -3 169
-5 349 -3 252 2 330 6 340 16 10 10 14 193 19 904 7 863 7 891 26 917 33 44
69 50 328 50 322 1 383 -12 480 -105 45 -42 151 -184 225 -299 176 -275 288
-444 357 -540 20 -27 89 -129 154 -226 64 -96 145 -213 179 -260 34 -46 76
-104 93 -128 64 -88 200 -257 240 -298 l41 -43 141 1 c77 1 201 4 275 8 74 3
186 2 249 -3 105 -8 115 -7 128 10 7 10 13 23 13 29 0 24 -279 463 -375 590
-50 66 -138 195 -228 335 -9 14 -29 43 -45 65 -79 111 -218 317 -289 427 -43
67 -121 179 -173 248 -51 69 -132 181 -178 250 -47 69 -100 146 -118 171 -44
60 -67 125 -60 167 5 30 58 113 109 167 10 11 28 36 40 55 23 38 227 326 284
400 19 25 89 128 157 230 67 102 179 268 248 369 69 101 137 202 151 225 15
23 65 95 111 161 47 66 115 167 152 225 37 58 93 146 125 195 109 169 106 178
-60 173 -64 -2 -217 0 -341 4 -124 3 -248 3 -275 -1z"/>
<path d="M1437 6928 c-3 -29 -5 -1032 -4 -2228 2 -1821 4 -2179 16 -2199 l13
-24 351 6 c193 4 355 11 360 16 5 5 11 595 14 1427 2 781 8 1489 11 1574 l7
155 35 -3 c55 -6 85 -27 134 -94 232 -318 302 -406 397 -503 48 -49 116 -127
151 -171 95 -123 218 -275 254 -314 18 -19 60 -69 94 -110 96 -116 248 -295
325 -384 39 -45 90 -106 115 -136 41 -50 139 -165 183 -215 10 -11 44 -51 75
-90 31 -38 77 -92 102 -120 25 -27 81 -94 125 -148 44 -53 118 -144 165 -201
47 -57 123 -150 169 -207 93 -115 373 -397 441 -444 l43 -30 257 -3 c232 -3
258 -2 271 14 12 14 15 232 21 1443 4 784 6 1784 4 2221 l-3 795 -44 9 c-24 5
-951 10 -2060 13 l-2017 4 -5 -53z m2898 -673 c226 -3 423 -8 438 -11 15 -4
33 -16 39 -27 21 -40 25 -294 19 -1257 -7 -1068 -5 -1031 -64 -1038 -24 -3
-42 10 -116 85 -48 48 -123 135 -166 193 -43 58 -100 130 -127 160 -86 100
-242 284 -283 335 -22 27 -80 95 -130 151 -107 120 -165 187 -271 314 -43 52
-132 151 -198 220 -65 69 -153 168 -194 220 -95 118 -320 378 -424 487 -62 65
-78 89 -78 112 0 41 26 54 125 61 81 6 682 4 1430 -5z"/>
<path d="M17970 6970 c-13 -8 -15 -265 -12 -2232 2 -1223 7 -2227 12 -2232 9
-9 3227 -9 3242 0 4 3 8 48 8 100 0 52 5 185 11 295 11 194 10 202 -8 228 -38
50 -137 53 -1308 37 -880 -11 -1167 2 -1188 57 -3 7 -11 48 -18 91 -10 63 -10
104 0 205 16 158 33 219 71 256 l30 29 633 -12 c900 -18 1741 -16 1760 2 11
11 15 73 21 293 4 154 4 298 0 322 -12 77 0 75 -452 65 -484 -11 -1692 -11
-1857 0 -66 4 -132 12 -147 18 -44 17 -52 53 -50 247 1 143 5 185 20 226 l18
50 1224 2 c797 2 1227 6 1233 12 11 11 22 265 22 510 0 199 32 183 -355 173
-168 -4 -710 -8 -1206 -8 -713 1 -904 4 -916 14 -32 26 -43 101 -42 293 1 161
4 192 20 225 l19 39 90 9 c50 5 574 10 1165 10 591 1 1096 3 1121 4 81 4 83 8
91 194 4 90 10 232 14 317 6 125 4 155 -7 162 -19 12 -3240 11 -3259 -1z"/>
</g>
</svg>
